<?xml version="1.0" standalone="no"?>
<!DOCTYPE svg PUBLIC "-//W3C//DTD SVG 20010904//EN"
 "http://www.w3.org/TR/2001/REC-SVG-20010904/DTD/svg10.dtd">
<svg version="1.0" xmlns="http://www.w3.org/2000/svg"
 width="1280.000000pt" height="1007.000000pt" viewBox="0 0 1280.000000 1007.000000"
 preserveAspectRatio="xMidYMid meet">
<g transform="translate(0.000000,1007.000000) scale(0.100000,-0.100000)"
fill="#ffffff" stroke="none">
<path d="M4065 10045 c-268 -68 -491 -274 -559 -515 -16 -58 -66 -359 -141
-855 -27 -179 -50 -302 -58 -307 -6 -4 -627 -8 -1378 -8 -1326 0 -1368 -1
-1443 -20 -236 -60 -405 -234 -465 -479 l-21 -84 0 -3588 0 -3589 25 -94 c28
-110 55 -166 119 -254 80 -109 204 -186 362 -227 l94 -25 5800 0 5800 0 94 25
c158 41 282 118 362 227 64 88 91 144 119 254 l25 94 0 3589 c0 3561 0 3589
-20 3669 -26 102 -49 157 -99 231 -82 120 -218 213 -367 251 -75 19 -116 20
-1456 20 l-1378 0 -10 23 c-5 12 -27 155 -50 317 -55 397 -117 774 -136 835
-29 88 -85 184 -151 254 -125 136 -265 219 -438 260 l-90 21 -2225 -1 -2225
-1 -90 -23z m4493 -747 c11 -14 13 -25 112 -669 76 -493 87 -537 173 -667 56
-84 161 -185 245 -236 85 -52 205 -93 303 -106 54 -6 535 -10 1360 -10 1155 0
1277 -2 1283 -16 11 -29 7 -6794 -4 -6815 -11 -19 -85 -19 -5625 -19 -3087 0
-5620 3 -5629 6 -15 6 -16 317 -16 3425 l0 3418 1333 3 c1501 4 1373 -3 1552
83 142 69 257 176 338 315 53 93 74 185 131 580 69 482 108 699 127 711 8 5
922 9 2160 9 1705 0 2149 -3 2157 -12z"/>
<path d="M6135 7384 c-16 -2 -73 -9 -125 -15 -490 -55 -982 -264 -1395 -594
-130 -103 -379 -352 -483 -483 -270 -338 -454 -714 -546 -1117 -93 -410 -94
-900 -1 -1305 121 -527 366 -961 775 -1371 467 -469 998 -732 1657 -820 230
-31 582 -31 783 0 490 74 903 249 1310 554 150 113 413 367 524 507 338 427
547 917 611 1431 17 143 20 475 5 630 -69 694 -370 1308 -882 1794 -447 425
-947 676 -1524 766 -110 17 -195 22 -409 24 -148 2 -283 1 -300 -1z m585 -769
c388 -61 710 -207 1020 -464 233 -194 454 -475 576 -736 187 -401 241 -885
149 -1341 -109 -541 -443 -1022 -935 -1347 -441 -291 -1022 -394 -1588 -281
-640 128 -1224 606 -1488 1219 -179 414 -219 908 -112 1370 66 288 220 591
420 830 372 443 860 708 1408 764 124 13 430 5 550 -14z"/>
<path d="M10631 7005 c-159 -45 -309 -169 -379 -316 -41 -85 -72 -205 -72
-278 0 -72 29 -192 64 -264 104 -213 311 -347 538 -347 106 0 169 15 267 63
148 72 258 203 317 377 14 42 19 83 18 170 0 98 -4 126 -27 193 -63 182 -195
319 -372 387 -78 30 -271 38 -354 15z"/>
</g>
</svg>
